<svg width="300" height="185" viewBox="0 0 300 185" fill="none" xmlns="http://www.w3.org/2000/svg">
<mask id="mask0_75_370" style="mask-type:alpha" maskUnits="userSpaceOnUse" x="0" y="0" width="300" height="185">
<rect width="300" height="185" rx="10" fill="#FF5757"/>
</mask>
<g mask="url(#mask0_75_370)">
<path fill-rule="evenodd" clip-rule="evenodd" d="M389.48 388.574C354.704 443.827 302.519 484.127 243.988 501.13C187.556 517.524 130.01 499.624 74.3801 480.111C18.1519 460.389 -44.9932 443.47 -77.3115 388.434C-109.201 334.129 -87.6181 263.822 -90.7104 198.975C-94.0458 129.032 -136.285 47.8763 -96.1169 -5.91788C-55.4958 -60.3184 24.2928 -29.373 87.1134 -39.1706C136.097 -46.8102 181.776 -62.5042 230.982 -56.9329C292.665 -49.9489 364.829 -54.9389 405.9 -3.07634C447.419 49.3529 436.864 129.433 433.933 199.345C431.134 266.118 423.902 333.885 389.48 388.574Z" fill="#FFCB3C"/>
<path fill-rule="evenodd" clip-rule="evenodd" d="M-11.2943 56.3075C53.394 49.6456 124.641 41.6826 177.155 84.3867C229.652 127.077 237.99 207.334 258.868 276.003C280.079 345.767 315.166 415.222 299.502 486.791C283.354 560.573 236.896 629.034 174.812 660.064C116.554 689.182 51.3805 655.618 -11.2943 642.13C-60.9533 631.443 -106.277 614.663 -151.685 589.8C-207.639 559.162 -279.508 543.975 -305.791 480.877C-332.493 416.773 -306.189 341.194 -282.563 275.602C-260.269 213.712 -224.465 159.883 -176.075 120.764C-127.75 81.6976 -70.7016 62.4255 -11.2943 56.3075Z" fill="#FEAA2B"/>
<path fill-rule="evenodd" clip-rule="evenodd" d="M384.102 -17.4774C442.151 -7.28536 473.021 61.0326 515.78 106.042C551.848 144.008 589.748 176.835 614.35 224.886C644.645 284.058 691.991 348.468 673.079 413.274C654.165 478.083 580.964 496.701 526.224 526.861C480.91 551.828 434.488 568.24 384.102 572.492C329.7 577.082 275.251 577.163 225.469 552.239C166.461 522.696 105.912 484.675 78.2906 419.382C49.1199 350.426 47.9814 266.332 74.8639 196.226C100.693 128.867 162.662 92.3992 218.459 53.8395C270.041 18.1931 324.178 -27.9987 384.102 -17.4774Z" fill="#FF5757"/>
</g>
<g clip-path="url(#clip0_75_370)">
<path d="M272.778 38.71L272.496 37.3037H269.354L268.854 38.7L266.335 38.705C267.534 35.8214 268.736 32.9389 269.94 30.0575C270.145 29.5687 270.509 29.32 271.045 29.3225C271.455 29.3262 272.124 29.3262 273.052 29.3237L275 38.7062L272.778 38.71ZM270.061 35.3775H272.086L271.33 31.8525L270.061 35.3775ZM253.825 29.3212L256.358 29.3237L252.443 38.7112L249.879 38.7087C249.234 36.2291 248.597 33.7475 247.969 31.2637C247.844 30.7687 247.596 30.4225 247.12 30.2587C246.696 30.1125 245.99 29.8875 245 29.5812V29.325H249.046C249.746 29.325 250.155 29.6637 250.286 30.3587C250.419 31.055 250.751 32.8275 251.286 35.6762L253.825 29.3212ZM259.837 29.3237L257.835 38.7087L255.425 38.7062L257.425 29.3212L259.837 29.3237ZM264.725 29.15C265.446 29.15 266.355 29.375 266.878 29.5812L266.455 31.5275C265.983 31.3375 265.205 31.0812 264.551 31.09C263.601 31.1062 263.014 31.505 263.014 31.8875C263.014 32.51 264.034 32.8237 265.084 33.5037C266.282 34.2787 266.44 34.975 266.425 35.7312C266.409 37.3012 265.084 38.85 262.289 38.85C261.014 38.8312 260.554 38.7237 259.514 38.355L259.954 36.3237C261.013 36.7675 261.461 36.9087 262.366 36.9087C263.195 36.9087 263.906 36.5737 263.913 35.99C263.917 35.575 263.663 35.3687 262.733 34.8562C261.802 34.3425 260.497 33.6312 260.515 32.2037C260.536 30.3762 262.267 29.15 264.726 29.15H264.725Z" fill="#FEFEFE"/>
</g>
<path d="M26.8651 91.5455L29.4964 99.2457H29.6026L32.234 91.5455H33.7759L30.3736 101H28.7255L25.3232 91.5455H26.8651ZM35.0305 101V93.9091H36.4108V101H35.0305ZM35.7275 92.815C35.4875 92.815 35.2813 92.735 35.1089 92.5749C34.9397 92.4118 34.855 92.2179 34.855 91.9933C34.855 91.7655 34.9397 91.5716 35.1089 91.4116C35.2813 91.2485 35.4875 91.1669 35.7275 91.1669C35.9676 91.1669 36.1723 91.2485 36.3415 91.4116C36.5139 91.5716 36.6001 91.7655 36.6001 91.9933C36.6001 92.2179 36.5139 92.4118 36.3415 92.5749C36.1723 92.735 35.9676 92.815 35.7275 92.815ZM43.5813 95.6403L42.3303 95.8619C42.2779 95.7018 42.1948 95.5495 42.081 95.4048C41.9702 95.2602 41.8194 95.1417 41.6286 95.0494C41.4377 94.957 41.1992 94.9109 40.913 94.9109C40.5221 94.9109 40.1959 94.9986 39.9343 95.174C39.6727 95.3464 39.5419 95.5695 39.5419 95.8434C39.5419 96.0804 39.6296 96.2712 39.805 96.4158C39.9805 96.5605 40.2636 96.679 40.6545 96.7713L41.7809 97.0298C42.4334 97.1806 42.9196 97.413 43.2397 97.7269C43.5598 98.0408 43.7198 98.4486 43.7198 98.9503C43.7198 99.375 43.5967 99.7536 43.3505 100.086C43.1074 100.415 42.7673 100.674 42.3303 100.862C41.8963 101.049 41.3931 101.143 40.8207 101.143C40.0266 101.143 39.3788 100.974 38.8771 100.635C38.3755 100.294 38.0677 99.8089 37.9538 99.1811L39.288 98.978C39.3711 99.3258 39.5419 99.5889 39.8004 99.7674C40.0589 99.9428 40.396 100.031 40.8114 100.031C41.2638 100.031 41.6255 99.9367 41.8963 99.7489C42.1671 99.5581 42.3026 99.3258 42.3026 99.0518C42.3026 98.8303 42.2195 98.6441 42.0533 98.4933C41.8902 98.3424 41.6393 98.2286 41.3008 98.1516L40.1005 97.8885C39.4388 97.7377 38.9495 97.4976 38.6325 97.1683C38.3185 96.839 38.1616 96.422 38.1616 95.9173C38.1616 95.4987 38.2785 95.1325 38.5124 94.8185C38.7463 94.5046 39.0695 94.2599 39.4819 94.0845C39.8943 93.906 40.3667 93.8168 40.8991 93.8168C41.6655 93.8168 42.2687 93.983 42.7088 94.3153C43.1489 94.6446 43.4397 95.0863 43.5813 95.6403ZM47.301 101.157C46.8517 101.157 46.4455 101.074 46.0823 100.908C45.7191 100.738 45.4314 100.494 45.219 100.174C45.0097 99.8536 44.9051 99.4612 44.9051 98.9964C44.9051 98.5964 44.982 98.267 45.1359 98.0085C45.2898 97.75 45.4975 97.5453 45.7591 97.3945C46.0207 97.2437 46.3131 97.1299 46.6363 97.0529C46.9594 96.976 47.2887 96.9175 47.6242 96.8775C48.0489 96.8282 48.3936 96.7882 48.6583 96.7575C48.923 96.7236 49.1153 96.6697 49.2354 96.5959C49.3554 96.522 49.4154 96.402 49.4154 96.2358V96.2035C49.4154 95.8003 49.3015 95.4879 49.0738 95.2663C48.8491 95.0447 48.5136 94.9339 48.0674 94.9339C47.6027 94.9339 47.2364 95.037 46.9687 95.2433C46.704 95.4464 46.5209 95.6726 46.4193 95.9219L45.1221 95.6264C45.276 95.1955 45.5006 94.8478 45.7961 94.5831C46.0946 94.3153 46.4378 94.1214 46.8256 94.0014C47.2133 93.8783 47.6211 93.8168 48.0489 93.8168C48.3321 93.8168 48.6321 93.8506 48.9491 93.9183C49.2692 93.983 49.5677 94.103 49.8447 94.2784C50.1248 94.4538 50.3541 94.7047 50.5326 95.0309C50.7111 95.354 50.8003 95.7741 50.8003 96.2912V101H49.4523V100.031H49.3969C49.3077 100.209 49.1738 100.384 48.9953 100.557C48.8168 100.729 48.5875 100.872 48.3074 100.986C48.0274 101.1 47.6919 101.157 47.301 101.157ZM47.6011 100.049C47.9827 100.049 48.309 99.9736 48.5798 99.8228C48.8537 99.672 49.0615 99.475 49.203 99.2319C49.3477 98.9857 49.42 98.7225 49.42 98.4425V97.5284C49.3708 97.5777 49.2754 97.6238 49.1338 97.6669C48.9953 97.7069 48.8368 97.7423 48.6583 97.7731C48.4798 97.8008 48.3059 97.8269 48.1366 97.8516C47.9674 97.8731 47.8258 97.8916 47.7119 97.907C47.4442 97.9408 47.1995 97.9978 46.9779 98.0778C46.7594 98.1578 46.584 98.2732 46.4516 98.424C46.3224 98.5717 46.2577 98.7687 46.2577 99.0149C46.2577 99.3565 46.3839 99.6151 46.6363 99.7905C46.8886 99.9628 47.2103 100.049 47.6011 100.049ZM64.0427 94.62H62.6024C62.547 94.3123 62.4439 94.0414 62.2931 93.8075C62.1423 93.5736 61.9576 93.3751 61.7391 93.212C61.5206 93.0489 61.2759 92.9258 61.0051 92.8427C60.7373 92.7596 60.4526 92.718 60.151 92.718C59.6063 92.718 59.1185 92.855 58.6876 93.1289C58.2598 93.4028 57.9213 93.8045 57.672 94.3338C57.4258 94.8632 57.3026 95.5095 57.3026 96.2727C57.3026 97.0421 57.4258 97.6915 57.672 98.2209C57.9213 98.7502 58.2613 99.1503 58.6922 99.4212C59.1231 99.692 59.6078 99.8274 60.1464 99.8274C60.4449 99.8274 60.7281 99.7874 60.9958 99.7074C61.2667 99.6243 61.5113 99.5027 61.7298 99.3427C61.9484 99.1826 62.133 98.9872 62.2838 98.7564C62.4377 98.5225 62.5439 98.2547 62.6024 97.9531L64.0427 97.9577C63.9658 98.4225 63.8165 98.8503 63.5949 99.2411C63.3764 99.6289 63.0948 99.9644 62.7501 100.248C62.4085 100.528 62.0176 100.745 61.5775 100.898C61.1374 101.052 60.6573 101.129 60.1372 101.129C59.3185 101.129 58.5891 100.935 57.949 100.548C57.3088 100.157 56.8041 99.5981 56.4347 98.8718C56.0685 98.1455 55.8854 97.2791 55.8854 96.2727C55.8854 95.2633 56.07 94.3969 56.4394 93.6737C56.8087 92.9473 57.3134 92.3903 57.9536 92.0025C58.5937 91.6116 59.3216 91.4162 60.1372 91.4162C60.6388 91.4162 61.1066 91.4885 61.5406 91.6332C61.9776 91.7747 62.37 91.984 62.7178 92.261C63.0655 92.5349 63.3533 92.8704 63.5811 93.2674C63.8088 93.6613 63.9627 94.1122 64.0427 94.62ZM67.0192 91.5455V101H65.6388V91.5455H67.0192ZM70.9397 101.157C70.4904 101.157 70.0841 101.074 69.721 100.908C69.3578 100.738 69.07 100.494 68.8577 100.174C68.6484 99.8536 68.5438 99.4612 68.5438 98.9964C68.5438 98.5964 68.6207 98.267 68.7746 98.0085C68.9285 97.75 69.1362 97.5453 69.3978 97.3945C69.6594 97.2437 69.9518 97.1299 70.2749 97.0529C70.5981 96.976 70.9274 96.9175 71.2629 96.8775C71.6876 96.8282 72.0323 96.7882 72.297 96.7575C72.5616 96.7236 72.754 96.6697 72.874 96.5959C72.9941 96.522 73.0541 96.402 73.0541 96.2358V96.2035C73.0541 95.8003 72.9402 95.4879 72.7124 95.2663C72.4878 95.0447 72.1523 94.9339 71.7061 94.9339C71.2413 94.9339 70.8751 95.037 70.6073 95.2433C70.3427 95.4464 70.1595 95.6726 70.058 95.9219L68.7607 95.6264C68.9146 95.1955 69.1393 94.8478 69.4347 94.5831C69.7333 94.3153 70.0764 94.1214 70.4642 94.0014C70.852 93.8783 71.2598 93.8168 71.6876 93.8168C71.9707 93.8168 72.2708 93.8506 72.5878 93.9183C72.9079 93.983 73.2064 94.103 73.4834 94.2784C73.7635 94.4538 73.9927 94.7047 74.1713 95.0309C74.3498 95.354 74.439 95.7741 74.439 96.2912V101H73.091V100.031H73.0356C72.9463 100.209 72.8125 100.384 72.634 100.557C72.4555 100.729 72.2262 100.872 71.9461 100.986C71.666 101.1 71.3306 101.157 70.9397 101.157ZM71.2398 100.049C71.6214 100.049 71.9477 99.9736 72.2185 99.8228C72.4924 99.672 72.7001 99.475 72.8417 99.2319C72.9864 98.9857 73.0587 98.7225 73.0587 98.4425V97.5284C73.0094 97.5777 72.914 97.6238 72.7725 97.6669C72.634 97.7069 72.4755 97.7423 72.297 97.7731C72.1185 97.8008 71.9446 97.8269 71.7753 97.8516C71.606 97.8731 71.4645 97.8916 71.3506 97.907C71.0828 97.9408 70.8382 97.9978 70.6166 98.0778C70.3981 98.1578 70.2226 98.2732 70.0903 98.424C69.961 98.5717 69.8964 98.7687 69.8964 99.0149C69.8964 99.3565 70.0226 99.6151 70.2749 99.7905C70.5273 99.9628 70.8489 100.049 71.2398 100.049ZM81.5911 95.6403L80.34 95.8619C80.2877 95.7018 80.2046 95.5495 80.0907 95.4048C79.9799 95.2602 79.8291 95.1417 79.6383 95.0494C79.4475 94.957 79.209 94.9109 78.9228 94.9109C78.5319 94.9109 78.2057 94.9986 77.9441 95.174C77.6825 95.3464 77.5517 95.5695 77.5517 95.8434C77.5517 96.0804 77.6394 96.2712 77.8148 96.4158C77.9902 96.5605 78.2734 96.679 78.6642 96.7713L79.7907 97.0298C80.4431 97.1806 80.9294 97.413 81.2495 97.7269C81.5695 98.0408 81.7296 98.4486 81.7296 98.9503C81.7296 99.375 81.6065 99.7536 81.3603 100.086C81.1171 100.415 80.777 100.674 80.34 100.862C79.9061 101.049 79.4029 101.143 78.8304 101.143C78.0364 101.143 77.3886 100.974 76.8869 100.635C76.3852 100.294 76.0775 99.8089 75.9636 99.1811L77.2978 98.978C77.3809 99.3258 77.5517 99.5889 77.8102 99.7674C78.0687 99.9428 78.4057 100.031 78.8212 100.031C79.2736 100.031 79.6352 99.9367 79.9061 99.7489C80.1769 99.5581 80.3123 99.3258 80.3123 99.0518C80.3123 98.8303 80.2292 98.6441 80.063 98.4933C79.8999 98.3424 79.6491 98.2286 79.3105 98.1516L78.1103 97.8885C77.4486 97.7377 76.9592 97.4976 76.6422 97.1683C76.3283 96.839 76.1713 96.422 76.1713 95.9173C76.1713 95.4987 76.2883 95.1325 76.5222 94.8185C76.7561 94.5046 77.0792 94.2599 77.4917 94.0845C77.9041 93.906 78.3765 93.8168 78.9089 93.8168C79.6752 93.8168 80.2785 93.983 80.7186 94.3153C81.1587 94.6446 81.4495 95.0863 81.5911 95.6403ZM88.5608 95.6403L87.3097 95.8619C87.2574 95.7018 87.1743 95.5495 87.0605 95.4048C86.9497 95.2602 86.7989 95.1417 86.608 95.0494C86.4172 94.957 86.1787 94.9109 85.8925 94.9109C85.5016 94.9109 85.1754 94.9986 84.9138 95.174C84.6522 95.3464 84.5214 95.5695 84.5214 95.8434C84.5214 96.0804 84.6091 96.2712 84.7845 96.4158C84.96 96.5605 85.2431 96.679 85.634 96.7713L86.7604 97.0298C87.4128 97.1806 87.8991 97.413 88.2192 97.7269C88.5393 98.0408 88.6993 98.4486 88.6993 98.9503C88.6993 99.375 88.5762 99.7536 88.33 100.086C88.0869 100.415 87.7468 100.674 87.3097 100.862C86.8758 101.049 86.3726 101.143 85.8002 101.143C85.0061 101.143 84.3583 100.974 83.8566 100.635C83.355 100.294 83.0472 99.8089 82.9333 99.1811L84.2675 98.978C84.3506 99.3258 84.5214 99.5889 84.7799 99.7674C85.0384 99.9428 85.3754 100.031 85.7909 100.031C86.2433 100.031 86.605 99.9367 86.8758 99.7489C87.1466 99.5581 87.282 99.3258 87.282 99.0518C87.282 98.8303 87.199 98.6441 87.0328 98.4933C86.8696 98.3424 86.6188 98.2286 86.2803 98.1516L85.08 97.8885C84.4183 97.7377 83.9289 97.4976 83.6119 97.1683C83.298 96.839 83.1411 96.422 83.1411 95.9173C83.1411 95.4987 83.258 95.1325 83.4919 94.8185C83.7258 94.5046 84.049 94.2599 84.4614 94.0845C84.8738 93.906 85.3462 93.8168 85.8786 93.8168C86.645 93.8168 87.2482 93.983 87.6883 94.3153C88.1284 94.6446 88.4192 95.0863 88.5608 95.6403ZM90.217 101V93.9091H91.5973V101H90.217ZM90.9141 92.815C90.674 92.815 90.4678 92.735 90.2955 92.5749C90.1262 92.4118 90.0415 92.2179 90.0415 91.9933C90.0415 91.7655 90.1262 91.5716 90.2955 91.4116C90.4678 91.2485 90.674 91.1669 90.9141 91.1669C91.1541 91.1669 91.3588 91.2485 91.5281 91.4116C91.7004 91.5716 91.7866 91.7655 91.7866 91.9933C91.7866 92.2179 91.7004 92.4118 91.5281 92.5749C91.3588 92.735 91.1541 92.815 90.9141 92.815ZM96.4411 101.143C95.7548 101.143 95.1639 100.988 94.6684 100.677C94.176 100.363 93.7974 99.9305 93.5328 99.3796C93.2681 98.8287 93.1357 98.1978 93.1357 97.4869C93.1357 96.7667 93.2712 96.1312 93.542 95.5803C93.8128 95.0263 94.1945 94.5939 94.6869 94.283C95.1793 93.9722 95.7594 93.8168 96.4273 93.8168C96.9659 93.8168 97.446 93.9168 97.8676 94.1168C98.2893 94.3138 98.6294 94.5908 98.8879 94.9478C99.1495 95.3048 99.3049 95.7218 99.3541 96.1989H98.0107C97.9369 95.8665 97.7676 95.5803 97.5029 95.3402C97.2413 95.1001 96.8905 94.9801 96.4504 94.9801C96.0657 94.9801 95.7287 95.0817 95.4394 95.2848C95.1531 95.4848 94.93 95.7711 94.77 96.1435C94.6099 96.5128 94.5299 96.9498 94.5299 97.4545C94.5299 97.9716 94.6084 98.4179 94.7654 98.7933C94.9223 99.1688 95.1439 99.4596 95.4301 99.6658C95.7194 99.872 96.0595 99.9751 96.4504 99.9751C96.712 99.9751 96.949 99.9274 97.1613 99.832C97.3767 99.7335 97.5568 99.5935 97.7014 99.4119C97.8492 99.2304 97.9523 99.0118 98.0107 98.7564H99.3541C99.3049 99.215 99.1556 99.6243 98.9063 99.9844C98.657 100.344 98.3231 100.628 97.9046 100.834C97.4891 101.04 97.0013 101.143 96.4411 101.143Z" fill="#FEFEFE"/>
<defs>
<clipPath id="clip0_75_370">
<rect width="30" height="30" fill="white" transform="translate(245 19)"/>
</clipPath>
</defs>
</svg>
