<svg width="191" height="191" viewBox="0 0 191 191" fill="none" xmlns="http://www.w3.org/2000/svg">
<path d="M162.191 27.5358L127.333 15.9167C127.333 24.3594 123.979 32.4563 118.01 38.4262C112.04 44.3961 103.943 47.75 95.5 47.75C87.0573 47.75 78.9603 44.3961 72.9904 38.4262C67.0205 32.4563 63.6666 24.3594 63.6666 15.9167L28.8092 27.5358C25.2071 28.7359 22.1526 31.1841 20.1971 34.4384C18.2415 37.6928 17.5137 41.539 18.145 45.2829L22.7608 72.8983C23.0638 74.7679 24.0236 76.468 25.4678 77.6933C26.9119 78.9187 28.7457 79.5888 30.6396 79.5833H47.75V159.167C47.75 167.921 54.9125 175.083 63.6666 175.083H127.333C131.555 175.083 135.603 173.406 138.588 170.421C141.573 167.437 143.25 163.388 143.25 159.167V79.5833H160.36C162.254 79.5888 164.088 78.9187 165.532 77.6933C166.976 76.468 167.936 74.7679 168.239 72.8983L172.855 45.2829C173.486 41.539 172.758 37.6928 170.803 34.4384C168.847 31.1841 165.793 28.7359 162.191 27.5358Z" stroke="url(#paint0_linear_2_196)" stroke-width="7" stroke-linecap="round" stroke-linejoin="round"/>
<defs>
<linearGradient id="paint0_linear_2_196" x1="33.6811" y1="217.362" x2="-58.3691" y2="94.8107" gradientUnits="userSpaceOnUse">
<stop offset="0.298343"/>
<stop offset="1" stop-color="#424345"/>
</linearGradient>
</defs>
</svg>
