<svg width="111" height="27" viewBox="0 0 111 27" fill="none" xmlns="http://www.w3.org/2000/svg">
<path d="M6.09056 26.36C4.17056 26.36 2.71856 25.82 1.73456 24.74C0.750564 23.636 0.258564 22.064 0.258564 20.024V18.584H4.00256V20.312C4.00256 21.944 4.68656 22.76 6.05456 22.76C6.72656 22.76 7.23056 22.568 7.56656 22.184C7.92656 21.776 8.10656 21.128 8.10656 20.24C8.10656 19.184 7.86656 18.26 7.38656 17.468C6.90656 16.652 6.01856 15.68 4.72256 14.552C3.09056 13.112 1.95056 11.816 1.30256 10.664C0.654564 9.488 0.330564 8.168 0.330564 6.704C0.330564 4.712 0.834564 3.176 1.84256 2.096C2.85056 0.991999 4.31456 0.439999 6.23456 0.439999C8.13056 0.439999 9.55856 0.991999 10.5186 2.096C11.5026 3.176 11.9946 4.736 11.9946 6.776V7.82H8.25056V6.524C8.25056 5.66 8.08256 5.036 7.74656 4.652C7.41056 4.244 6.91856 4.04 6.27056 4.04C4.95056 4.04 4.29056 4.844 4.29056 6.452C4.29056 7.364 4.53056 8.216 5.01056 9.008C5.51456 9.8 6.41456 10.76 7.71056 11.888C9.36656 13.328 10.5066 14.636 11.1306 15.812C11.7546 16.988 12.0666 18.368 12.0666 19.952C12.0666 22.016 11.5506 23.6 10.5186 24.704C9.51056 25.808 8.03456 26.36 6.09056 26.36ZM17.7931 4.4H13.6531V0.799998H25.8931V4.4H21.7531V26H17.7931V4.4ZM31.947 15.272L27.159 0.799998H31.371L34.071 10.052H34.143L36.843 0.799998H40.695L35.907 15.272V26H31.947V15.272ZM42.839 0.799998H46.799V22.4H53.315V26H42.839V0.799998ZM55.574 0.799998H66.374V4.4H59.534V11.06H64.97V14.66H59.534V22.4H66.374V26H55.574V0.799998ZM72.0721 0.799998H77.4361L81.5401 26H77.5801L76.8601 20.996V21.068H72.3601L71.6401 26H67.9681L72.0721 0.799998ZM76.3921 17.648L74.6281 5.192H74.5561L72.8281 17.648H76.3921ZM89.331 26.36C87.435 26.36 85.983 25.82 84.975 24.74C83.991 23.66 83.499 22.136 83.499 20.168V6.632C83.499 4.664 83.991 3.14 84.975 2.06C85.983 0.979999 87.435 0.439999 89.331 0.439999C91.227 0.439999 92.667 0.979999 93.651 2.06C94.659 3.14 95.163 4.664 95.163 6.632V9.296H91.419V6.38C91.419 4.82 90.759 4.04 89.439 4.04C88.119 4.04 87.459 4.82 87.459 6.38V20.456C87.459 21.992 88.119 22.76 89.439 22.76C90.759 22.76 91.419 21.992 91.419 20.456V16.604H95.163V20.168C95.163 22.136 94.659 23.66 93.651 24.74C92.667 25.82 91.227 26.36 89.331 26.36ZM97.8922 0.799998H101.852V11.06H106.1V0.799998H110.06V26H106.1V14.66H101.852V26H97.8922V0.799998Z" fill="black"/>
</svg>
