<svg width="26" height="14" viewBox="0 0 26 14" fill="none" xmlns="http://www.w3.org/2000/svg">
<path fill-rule="evenodd" clip-rule="evenodd" d="M4.35809 8.27635C4.15134 8.27635 3.98947 8.42031 3.98947 8.63037C3.98947 8.84057 4.15217 8.9837 4.35809 8.9837C4.56386 8.9837 4.7267 8.8396 4.7267 8.63037C4.7267 8.42031 4.5647 8.27635 4.35809 8.27635ZM4.35809 8.88247C4.21067 8.88247 4.10132 8.7753 4.10132 8.63037C4.10132 8.48558 4.20984 8.37758 4.35809 8.37758C4.50453 8.37758 4.61472 8.48724 4.61472 8.63037C4.61472 8.77267 4.50356 8.88247 4.35809 8.88247ZM7.9449 7.0381H6.15045L6.35442 3.93377L5.18911 7.0381H3.52276L6.16671 0.021413H7.93976L7.7351 3.16834L8.9225 0.021413H10.589L7.9449 7.0381ZM8.16137 7.0381L10.8052 0.021413H12.4715L9.82771 7.0381H8.16137Z" fill="#1D1E20"/>
<path fill-rule="evenodd" clip-rule="evenodd" d="M3.33058 4.61961C1.00203 7.34131 -1.19452 10.9627 0.745683 12.6304C2.62572 14.2465 4.97567 13.2896 6.57797 12.6517C8.18026 12.0137 25.8904 4.35907 25.8904 4.35907C26.0613 4.27402 26.0293 4.16768 25.8156 4.22078C25.7295 4.24222 6.53531 9.41955 6.53531 9.41955C4.09963 10.1001 1.32244 8.61691 3.33058 4.61961Z" fill="#1D1E20"/>
<path fill-rule="evenodd" clip-rule="evenodd" d="M4.42086 8.65532C4.47255 8.65283 4.51298 8.62628 4.51298 8.55506C4.51298 8.46323 4.45268 8.44014 4.35195 8.44014H4.20717V8.82085H4.30373V8.65877H4.31999L4.40794 8.82085H4.51896L4.42086 8.65532ZM4.35889 8.59364H4.30387V8.50527H4.35028C4.37876 8.50527 4.41142 8.50859 4.41142 8.54551C4.41142 8.58506 4.39252 8.59364 4.35889 8.59364ZM21.1088 -3.05176e-05C20.9021 -3.05176e-05 20.7402 0.144068 20.7402 0.353994C20.7402 0.564058 20.9031 0.707189 21.1088 0.707189C21.3146 0.707189 21.4775 0.563089 21.4775 0.353994C21.4776 0.144068 21.3157 -3.05176e-05 21.1088 -3.05176e-05ZM21.1088 0.606236C20.9614 0.606236 20.8521 0.499061 20.8521 0.354132C20.8521 0.209342 20.9606 0.101336 21.1088 0.101336C21.2553 0.101336 21.3656 0.211001 21.3656 0.354132C21.3656 0.496434 21.2545 0.606236 21.1088 0.606236Z" fill="#1D1E20"/>
<path fill-rule="evenodd" clip-rule="evenodd" d="M21.1718 0.378896C21.2235 0.376407 21.264 0.349855 21.264 0.278635C21.264 0.18681 21.2036 0.163715 21.103 0.163715H20.9582V0.544293H21.0547V0.382354H21.0711L21.1589 0.544293H21.27L21.1718 0.378896ZM21.1097 0.317218H21.0547V0.22885H21.1012C21.1296 0.22885 21.1623 0.232307 21.1623 0.269231C21.1623 0.308644 21.1433 0.317218 21.1097 0.317218ZM20.0109 1.19094L20.4587 0.021413H15.3742L13.6284 2.12649L14.4344 0.021413H12.7467L10.124 7.03818H11.7903L12.9101 4.10392L12.9868 7.03818L18.0998 7.02712L18.5865 5.6774H16.6425L17.2812 3.97641H18.8834L19.3764 2.66873H17.7742L18.3235 1.19094H20.0109ZM14.6399 6.57034L14.5331 2.91323L17.0525 0.159981L14.6399 6.57034Z" fill="#1D1E20"/>
</svg>
