<svg width="31" height="39" viewBox="0 0 31 39" fill="none" xmlns="http://www.w3.org/2000/svg">
<path d="M5.17521 35.7906H14.3234C13.4312 35.0411 12.6893 34.1292 12.1368 33.1033H5.3255C3.60613 33.1033 2.68803 32.2179 2.68803 30.5491V5.29202C2.68803 3.6396 3.58903 2.68732 5.3255 2.68732H22.7699C24.4395 2.68732 25.391 3.62251 25.391 5.29202V19.8483C26.4163 20.3948 27.3283 21.1313 28.0784 22.0185V5.24145C28.0784 1.75285 26.359 0 22.9038 0H5.17521C1.73647 0 0 1.76923 0 5.24217V30.5648C0 34.0534 1.73647 35.7906 5.17521 35.7906ZM7.72935 9.49786H20.3832C20.9672 9.49786 21.4181 9.03063 21.4181 8.44587C21.4181 7.87892 20.9672 7.44444 20.3832 7.44444H7.72935C7.11182 7.44444 6.67735 7.87892 6.67735 8.44587C6.67735 9.02991 7.11182 9.49786 7.72935 9.49786ZM7.72935 15.3241H20.3832C20.9672 15.3241 21.4181 14.8561 21.4181 14.2721C21.4181 13.7044 20.9672 13.2707 20.3832 13.2707H7.72935C7.11182 13.2707 6.67735 13.7051 6.67735 14.2721C6.67735 14.8561 7.11182 15.3241 7.72935 15.3241ZM20.5833 35.7899C22.0862 35.7899 23.5043 35.3554 24.6731 34.5719L28.4288 38.344C28.8298 38.7279 29.1966 38.8782 29.6474 38.8782C30.4152 38.8782 31 38.2771 31 37.4252C31 37.0584 30.8162 36.6916 30.5328 36.4074L26.7265 32.6019C27.6089 31.3392 28.0809 29.8353 28.0784 28.2949C28.0784 24.1382 24.7236 20.7828 20.5833 20.7828C16.443 20.7828 13.0548 24.1716 13.0548 28.2949C13.0548 32.4345 16.443 35.7899 20.5833 35.7899ZM20.5833 33.4024C17.745 33.4024 15.4416 31.1161 15.4416 28.2949C15.4416 25.5071 17.745 23.1866 20.5833 23.1866C23.3711 23.1866 25.6745 25.5071 25.6745 28.2949C25.6745 31.1154 23.3882 33.4024 20.5833 33.4024Z" fill="white"/>
</svg>
