<svg width="15" height="15" viewBox="0 0 15 15" fill="none" xmlns="http://www.w3.org/2000/svg">
<path d="M12.0782 5.91763C12.0782 5.91763 11.7388 10.127 11.5419 11.9001C11.4482 12.747 10.9251 13.2433 10.0682 13.2589C8.43756 13.2883 6.80506 13.2901 5.17506 13.2558C4.35068 13.2389 3.83631 12.7364 3.74443 11.9045C3.54631 10.1158 3.20881 5.91763 3.20881 5.91763M12.9427 3.89983H2.34399M10.9005 3.89982C10.4099 3.89982 9.98737 3.55294 9.89112 3.07232L9.73925 2.31232C9.6455 1.96169 9.328 1.71919 8.96612 1.71919H6.3205C5.95862 1.71919 5.64112 1.96169 5.54737 2.31232L5.3955 3.07232C5.29925 3.55294 4.87675 3.89982 4.38612 3.89982" stroke="#8F959E" stroke-width="1.3" stroke-linecap="round" stroke-linejoin="round"/>
</svg>
